<svg width="100" height="100" viewBox="0 0 100 100" fill="none" xmlns="http://www.w3.org/2000/svg">
<rect width="100" height="100" fill="#C0C0C0"/>
<path d="M15.0344 54V24.9091H32.4776V28.0341H18.5572V37.8636H31.1708V40.9886H18.5572V54H15.0344ZM36.0714 54H32.3782L43.06 24.9091H46.6964L57.3782 54H53.685L44.9918 29.5114H44.7646L36.0714 54ZM37.435 42.6364H52.3214V45.7614H37.435V42.6364ZM71.1104 44.9091H74.9741L78.2127 49.1705L79.065 50.3068L83.8945 56.7273H80.0309L76.8491 52.4659L76.0536 51.3864L71.1104 44.9091ZM85.0877 39.4545C85.0877 42.5227 84.5337 45.1742 83.4258 47.4091C82.3178 49.6439 80.7979 51.3674 78.8661 52.5795C76.9343 53.7917 74.7279 54.3977 72.2468 54.3977C69.7657 54.3977 67.5593 53.7917 65.6275 52.5795C63.6957 51.3674 62.1758 49.6439 61.0678 47.4091C59.9599 45.1742 59.4059 42.5227 59.4059 39.4545C59.4059 36.3864 59.9599 33.7348 61.0678 31.5C62.1758 29.2652 63.6957 27.5417 65.6275 26.3295C67.5593 25.1174 69.7657 24.5114 72.2468 24.5114C74.7279 24.5114 76.9343 25.1174 78.8661 26.3295C80.7979 27.5417 82.3178 29.2652 83.4258 31.5C84.5337 33.7348 85.0877 36.3864 85.0877 39.4545ZM81.6786 39.4545C81.6786 36.9356 81.2572 34.8097 80.4144 33.0767C79.5811 31.3438 78.4495 30.0322 77.0195 29.142C75.5991 28.2519 74.0082 27.8068 72.2468 27.8068C70.4854 27.8068 68.8898 28.2519 67.4599 29.142C66.0394 30.0322 64.9078 31.3438 64.065 33.0767C63.2317 34.8097 62.815 36.9356 62.815 39.4545C62.815 41.9735 63.2317 44.0994 64.065 45.8324C64.9078 47.5653 66.0394 48.8769 67.4599 49.767C68.8898 50.6572 70.4854 51.1023 72.2468 51.1023C74.0082 51.1023 75.5991 50.6572 77.0195 49.767C78.4495 48.8769 79.5811 47.5653 80.4144 45.8324C81.2572 44.0994 81.6786 41.9735 81.6786 39.4545Z" fill="black"/>
<rect x="10" y="67" width="80" height="17" fill="#464646"/>
</svg>
