<svg width="100" height="100" viewBox="0 0 100 100" fill="none" xmlns="http://www.w3.org/2000/svg">
<g clip-path="url(#clip0_27_6)">
<rect width="100" height="100" fill="#C0C0C0"/>
<path d="M17.777 17.7273V41H14.9588V17.7273H17.777ZM41.8821 17.7273V41H39.1548L26.473 22.7273H26.2457V41H23.4276V17.7273H26.1548L38.8821 36.0455H39.1094V17.7273H41.8821ZM47.5213 41V17.7273H61.4759V20.2273H50.3395V28.0909H60.4304V30.5909H50.3395V41H47.5213ZM85.9389 29.3636C85.9389 31.8182 85.4957 33.9394 84.6094 35.7273C83.723 37.5152 82.5071 38.8939 80.9616 39.8636C79.4162 40.8333 77.651 41.3182 75.6662 41.3182C73.6813 41.3182 71.9162 40.8333 70.3707 39.8636C68.8253 38.8939 67.6094 37.5152 66.723 35.7273C65.8366 33.9394 65.3935 31.8182 65.3935 29.3636C65.3935 26.9091 65.8366 24.7879 66.723 23C67.6094 21.2121 68.8253 19.8333 70.3707 18.8636C71.9162 17.8939 73.6813 17.4091 75.6662 17.4091C77.651 17.4091 79.4162 17.8939 80.9616 18.8636C82.5071 19.8333 83.723 21.2121 84.6094 23C85.4957 24.7879 85.9389 26.9091 85.9389 29.3636ZM83.2116 29.3636C83.2116 27.3485 82.8745 25.6477 82.2003 24.2614C81.5336 22.875 80.6283 21.8258 79.4844 21.1136C78.348 20.4015 77.0753 20.0455 75.6662 20.0455C74.2571 20.0455 72.9806 20.4015 71.8366 21.1136C70.7003 21.8258 69.795 22.875 69.1207 24.2614C68.4541 25.6477 68.1207 27.3485 68.1207 29.3636C68.1207 31.3788 68.4541 33.0795 69.1207 34.4659C69.795 35.8523 70.7003 36.9015 71.8366 37.6136C72.9806 38.3258 74.2571 38.6818 75.6662 38.6818C77.0753 38.6818 78.348 38.3258 79.4844 37.6136C80.6283 36.9015 81.5336 35.8523 82.2003 34.4659C82.8745 33.0795 83.2116 31.3788 83.2116 29.3636Z" fill="black"/>
<path d="M40.0909 66.6903H40.3636C43.2576 66.7206 45.5606 67.0237 47.2727 67.5994C48.9848 68.1752 50.3712 68.9934 51.4318 70.054C52.4924 71.1146 53.4697 72.3873 54.3636 73.8722C54.9091 74.7661 55.553 75.5691 56.2955 76.2812C57.053 76.9934 57.9242 77.554 58.9091 77.9631C59.8939 78.3873 60.9848 78.5994 62.1818 78.5994C63.6667 78.5994 64.9545 78.2509 66.0455 77.554C67.1364 76.857 67.9773 75.9252 68.5682 74.7585C69.1591 73.5919 69.4545 72.2964 69.4545 70.8722C69.4545 69.6297 69.197 68.4328 68.6818 67.2812C68.1667 66.1297 67.3561 65.1676 66.25 64.3949C65.1439 63.6222 63.697 63.1752 61.9091 63.054V57.3267C64.4848 57.4479 66.6894 58.1146 68.5227 59.3267C70.3561 60.554 71.7576 62.1676 72.7273 64.1676C73.697 66.1828 74.1818 68.4176 74.1818 70.8722C74.1818 73.5388 73.6515 75.857 72.5909 77.8267C71.5303 79.8116 70.0758 81.3419 68.2273 82.4176C66.3788 83.5085 64.2727 84.054 61.9091 84.054C60.2424 84.054 58.7348 83.7964 57.3864 83.2812C56.0379 82.7812 54.8333 82.054 53.7727 81.0994C52.7121 80.16 51.7727 79.0237 50.9545 77.6903C50.1212 76.357 49.2424 75.2888 48.3182 74.4858C47.4091 73.6828 46.3258 73.0994 45.0682 72.7358C43.8106 72.3722 42.2424 72.1752 40.3636 72.1449H40.0909V66.6903ZM26.6364 69.5994C26.6364 68.4782 27.0379 67.5161 27.8409 66.7131C28.6439 65.91 29.6061 65.5085 30.7273 65.5085C31.8485 65.5085 32.8106 65.91 33.6136 66.7131C34.4167 67.5161 34.8182 68.4782 34.8182 69.5994C34.8182 70.7206 34.4167 71.6828 33.6136 72.4858C32.8106 73.2888 31.8485 73.6903 30.7273 73.6903C29.9848 73.6903 29.303 73.5009 28.6818 73.1222C28.0606 72.7585 27.5606 72.2661 27.1818 71.6449C26.8182 71.0388 26.6364 70.357 26.6364 69.5994Z" fill="black"/>
<rect x="10" y="43" width="80" height="7" fill="#464646"/>
</g>
<defs>
<clipPath id="clip0_27_6">
<rect width="100" height="100" fill="white"/>
</clipPath>
</defs>
</svg>
