<svg width="240" height="109" viewBox="0 0 240 109" fill="none" xmlns="http://www.w3.org/2000/svg">
<g clip-path="url(#clip0_37_3)">
<path d="M67.0666 84.84C63.3332 84.84 60.1599 84.14 57.5466 82.74C54.9799 81.34 53.0199 79.4033 51.6666 76.93C50.3132 74.4567 49.6366 71.61 49.6366 68.39C49.6366 65.31 50.4299 62.5333 52.0166 60.06C53.6032 57.5867 55.7266 55.6267 58.3866 54.18C61.0466 52.6867 64.0099 51.94 67.2766 51.94C71.6632 51.94 75.2566 53.2233 78.0566 55.79C80.9032 58.31 82.7466 61.9733 83.5866 66.78L59.7866 74.34L57.6166 69.02L74.8366 63.21L72.8066 64.12C72.4332 62.9067 71.7566 61.8567 70.7766 60.97C69.8432 60.0367 68.4199 59.57 66.5066 59.57C65.0599 59.57 63.7766 59.92 62.6566 60.62C61.5832 61.2733 60.7432 62.23 60.1366 63.49C59.5766 64.7033 59.2966 66.15 59.2966 67.83C59.2966 69.7433 59.6466 71.3533 60.3466 72.66C61.0466 73.92 62.0032 74.8767 63.2166 75.53C64.4299 76.1833 65.7832 76.51 67.2766 76.51C68.3499 76.51 69.3766 76.3233 70.3566 75.95C71.3832 75.5767 72.3866 75.0867 73.3666 74.48L77.7066 81.76C76.0732 82.6933 74.2999 83.44 72.3866 84C70.5199 84.56 68.7466 84.84 67.0666 84.84ZM103.168 84.84C100.321 84.84 97.778 84.1867 95.538 82.88C93.298 81.5267 91.5246 79.59 90.218 77.07C88.958 74.55 88.328 71.5633 88.328 68.11C88.328 64.6567 89.028 61.7167 90.428 59.29C91.828 56.8633 93.7413 55.02 96.168 53.76C98.5946 52.5 101.348 51.87 104.428 51.87C106.388 51.87 108.255 52.1733 110.028 52.78C111.848 53.3867 113.365 54.32 114.578 55.58V58.66V28.77H124.308V84H114.508V78.05L115.278 80.15C113.691 81.4567 111.918 82.5767 109.958 83.51C107.998 84.3967 105.735 84.84 103.168 84.84ZM106.388 76.58C107.695 76.58 108.838 76.4167 109.818 76.09C110.845 75.7167 111.731 75.2033 112.478 74.55C113.271 73.85 113.948 72.9867 114.508 71.96V64.47C114.135 63.4433 113.551 62.58 112.758 61.88C112.011 61.1333 111.078 60.5733 109.958 60.2C108.885 59.78 107.695 59.57 106.388 59.57C104.941 59.57 103.588 59.9433 102.328 60.69C101.115 61.39 100.135 62.37 99.388 63.63C98.6413 64.89 98.268 66.3367 98.268 67.97C98.268 69.6033 98.6413 71.0733 99.388 72.38C100.135 73.6867 101.115 74.7133 102.328 75.46C103.588 76.2067 104.941 76.58 106.388 76.58ZM132.01 68.32C132.01 65.1933 132.733 62.3933 134.18 59.92C135.673 57.4467 137.75 55.51 140.41 54.11C143.07 52.6633 146.126 51.94 149.58 51.94C153.08 51.94 156.113 52.6633 158.68 54.11C161.246 55.51 163.206 57.4467 164.56 59.92C165.96 62.3933 166.66 65.1933 166.66 68.32C166.66 71.4467 165.96 74.27 164.56 76.79C163.206 79.2633 161.246 81.2233 158.68 82.67C156.113 84.1167 153.033 84.84 149.44 84.84C146.08 84.84 143.07 84.1867 140.41 82.88C137.796 81.5733 135.743 79.6833 134.25 77.21C132.756 74.7367 132.01 71.7733 132.01 68.32ZM141.88 68.39C141.88 69.9767 142.206 71.4233 142.86 72.73C143.513 73.99 144.4 74.9933 145.52 75.74C146.64 76.4867 147.9 76.86 149.3 76.86C150.84 76.86 152.17 76.4867 153.29 75.74C154.41 74.9933 155.273 73.99 155.88 72.73C156.486 71.4233 156.79 69.9767 156.79 68.39C156.79 66.7567 156.486 65.31 155.88 64.05C155.273 62.79 154.41 61.7867 153.29 61.04C152.17 60.2933 150.84 59.92 149.3 59.92C147.9 59.92 146.64 60.2933 145.52 61.04C144.4 61.7867 143.513 62.79 142.86 64.05C142.206 65.31 141.88 66.7567 141.88 68.39ZM183.2 53.41L184.11 61.81L183.9 60.55C184.787 58.73 186 57.19 187.54 55.93C189.08 54.6233 190.597 53.62 192.09 52.92C193.63 52.22 194.797 51.87 195.59 51.87L195.1 61.67C192.813 61.39 190.853 61.7633 189.22 62.79C187.587 63.8167 186.327 65.17 185.44 66.85C184.553 68.53 184.11 70.2567 184.11 72.03V84H174.38V53.41H183.2ZM214.945 84.84C212.099 84.84 209.509 84.28 207.175 83.16C204.889 81.9933 203.069 80.22 201.715 77.84C200.362 75.46 199.685 72.4267 199.685 68.74C199.685 65.2867 200.385 62.3 201.785 59.78C203.185 57.26 205.029 55.3233 207.315 53.97C209.602 52.57 212.029 51.87 214.595 51.87C217.629 51.87 219.915 52.3833 221.455 53.41C223.042 54.39 224.349 55.4867 225.375 56.7L224.955 57.89L225.865 53.41H234.965V84H225.165V77.35L225.935 79.45C225.842 79.45 225.562 79.73 225.095 80.29C224.629 80.8033 223.929 81.4333 222.995 82.18C222.109 82.88 220.989 83.4867 219.635 84C218.329 84.56 216.765 84.84 214.945 84.84ZM217.745 76.86C218.912 76.86 219.962 76.6967 220.895 76.37C221.829 75.9967 222.645 75.4833 223.345 74.83C224.045 74.13 224.652 73.2667 225.165 72.24V64.75C224.792 63.7233 224.232 62.86 223.485 62.16C222.739 61.4133 221.852 60.8533 220.825 60.48C219.799 60.06 218.655 59.85 217.395 59.85C215.995 59.85 214.689 60.2233 213.475 60.97C212.309 61.67 211.375 62.65 210.675 63.91C209.975 65.17 209.625 66.6167 209.625 68.25C209.625 69.8833 209.999 71.3533 210.745 72.66C211.492 73.9667 212.472 74.9933 213.685 75.74C214.945 76.4867 216.299 76.86 217.745 76.86Z" fill="white"/>
<path d="M22.2836 18.4L43.7836 71.4L35.3836 69.7L54.8836 18.4H72.0836L38.4836 95.4L4.88359 18.4H22.2836Z" fill="white"/>
</g>
<defs>
<clipPath id="clip0_37_3">
<rect width="240" height="109" fill="white"/>
</clipPath>
</defs>
</svg>
