<svg width="742" height="435" viewBox="0 0 742 435" fill="none" xmlns="http://www.w3.org/2000/svg">
<g clip-path="url(#clip0_1_21)">
<rect width="742" height="435" fill="white"/>
<rect width="742" height="435" fill="url(#paint0_linear_1_21)"/>
<path d="M198.72 161.68L224.52 225.28L214.44 223.24L237.84 161.68H258.48L218.16 254.08L177.84 161.68H198.72ZM281.799 251.44C275.399 251.44 269.959 250.24 265.479 247.84C261.079 245.44 257.719 242.12 255.399 237.88C253.079 233.64 251.919 228.76 251.919 223.24C251.919 217.96 253.279 213.2 255.999 208.96C258.719 204.72 262.359 201.36 266.919 198.88C271.479 196.32 276.559 195.04 282.159 195.04C289.679 195.04 295.839 197.24 300.639 201.64C305.519 205.96 308.679 212.24 310.119 220.48L269.319 233.44L265.599 224.32L295.119 214.36L291.639 215.92C290.999 213.84 289.839 212.04 288.159 210.52C286.559 208.92 284.119 208.12 280.839 208.12C278.359 208.12 276.159 208.72 274.239 209.92C272.399 211.04 270.959 212.68 269.919 214.84C268.959 216.92 268.479 219.4 268.479 222.28C268.479 225.56 269.079 228.32 270.279 230.56C271.479 232.72 273.119 234.36 275.199 235.48C277.279 236.6 279.599 237.16 282.159 237.16C283.999 237.16 285.759 236.84 287.439 236.2C289.199 235.56 290.919 234.72 292.599 233.68L300.039 246.16C297.239 247.76 294.199 249.04 290.919 250C287.719 250.96 284.679 251.44 281.799 251.44ZM343.688 251.44C338.808 251.44 334.448 250.32 330.608 248.08C326.768 245.76 323.728 242.44 321.488 238.12C319.328 233.8 318.248 228.68 318.248 222.76C318.248 216.84 319.448 211.8 321.848 207.64C324.248 203.48 327.528 200.32 331.688 198.16C335.848 196 340.568 194.92 345.848 194.92C349.208 194.92 352.408 195.44 355.448 196.48C358.568 197.52 361.168 199.12 363.248 201.28V206.56V155.32H379.928V250H363.128V239.8L364.448 243.4C361.728 245.64 358.688 247.56 355.328 249.16C351.968 250.68 348.088 251.44 343.688 251.44ZM349.208 237.28C351.448 237.28 353.408 237 355.088 236.44C356.848 235.8 358.368 234.92 359.648 233.8C361.008 232.6 362.168 231.12 363.128 229.36V216.52C362.488 214.76 361.488 213.28 360.128 212.08C358.848 210.8 357.248 209.84 355.328 209.2C353.488 208.48 351.448 208.12 349.208 208.12C346.728 208.12 344.408 208.76 342.248 210.04C340.168 211.24 338.488 212.92 337.208 215.08C335.928 217.24 335.288 219.72 335.288 222.52C335.288 225.32 335.928 227.84 337.208 230.08C338.488 232.32 340.168 234.08 342.248 235.36C344.408 236.64 346.728 237.28 349.208 237.28ZM393.13 223.12C393.13 217.76 394.37 212.96 396.85 208.72C399.41 204.48 402.97 201.16 407.53 198.76C412.09 196.28 417.33 195.04 423.25 195.04C429.25 195.04 434.45 196.28 438.85 198.76C443.25 201.16 446.61 204.48 448.93 208.72C451.33 212.96 452.53 217.76 452.53 223.12C452.53 228.48 451.33 233.32 448.93 237.64C446.61 241.88 443.25 245.24 438.85 247.72C434.45 250.2 429.17 251.44 423.01 251.44C417.25 251.44 412.09 250.32 407.53 248.08C403.05 245.84 399.53 242.6 396.97 238.36C394.41 234.12 393.13 229.04 393.13 223.12ZM410.05 223.24C410.05 225.96 410.61 228.44 411.73 230.68C412.85 232.84 414.37 234.56 416.29 235.84C418.21 237.12 420.37 237.76 422.77 237.76C425.41 237.76 427.69 237.12 429.61 235.84C431.53 234.56 433.01 232.84 434.05 230.68C435.09 228.44 435.61 225.96 435.61 223.24C435.61 220.44 435.09 217.96 434.05 215.8C433.01 213.64 431.53 211.92 429.61 210.64C427.69 209.36 425.41 208.72 422.77 208.72C420.37 208.72 418.21 209.36 416.29 210.64C414.37 211.92 412.85 213.64 411.73 215.8C410.61 217.96 410.05 220.44 410.05 223.24ZM480.885 197.56L482.445 211.96L482.085 209.8C483.605 206.68 485.685 204.04 488.325 201.88C490.965 199.64 493.565 197.92 496.125 196.72C498.765 195.52 500.765 194.92 502.125 194.92L501.285 211.72C497.365 211.24 494.005 211.88 491.205 213.64C488.405 215.4 486.245 217.72 484.725 220.6C483.205 223.48 482.445 226.44 482.445 229.48V250H465.765V197.56H480.885ZM535.306 251.44C530.426 251.44 525.986 250.48 521.986 248.56C518.066 246.56 514.946 243.52 512.626 239.44C510.306 235.36 509.146 230.16 509.146 223.84C509.146 217.92 510.346 212.8 512.746 208.48C515.146 204.16 518.306 200.84 522.226 198.52C526.146 196.12 530.306 194.92 534.706 194.92C539.906 194.92 543.826 195.8 546.466 197.56C549.186 199.24 551.426 201.12 553.186 203.2L552.466 205.24L554.026 197.56H569.626V250H552.826V238.6L554.146 242.2C553.986 242.2 553.506 242.68 552.706 243.64C551.906 244.52 550.706 245.6 549.106 246.88C547.586 248.08 545.666 249.12 543.346 250C541.106 250.96 538.426 251.44 535.306 251.44ZM540.106 237.76C542.106 237.76 543.906 237.48 545.506 236.92C547.106 236.28 548.506 235.4 549.706 234.28C550.906 233.08 551.946 231.6 552.826 229.84V217C552.186 215.24 551.226 213.76 549.946 212.56C548.666 211.28 547.146 210.32 545.386 209.68C543.626 208.96 541.666 208.6 539.506 208.6C537.106 208.6 534.866 209.24 532.786 210.52C530.786 211.72 529.186 213.4 527.986 215.56C526.786 217.72 526.186 220.2 526.186 223C526.186 225.8 526.826 228.32 528.106 230.56C529.386 232.8 531.066 234.56 533.146 235.84C535.306 237.12 537.626 237.76 540.106 237.76Z" fill="white"/>
<g filter="url(#filter0_d_1_21)">
<path fill-rule="evenodd" clip-rule="evenodd" d="M286.889 0H0V435H323V326.056L156 231.728L286.889 0Z" fill="#DE653A"/>
</g>
<g filter="url(#filter1_d_1_21)">
<path fill-rule="evenodd" clip-rule="evenodd" d="M742 362.654V0H536.233L742 362.654Z" fill="#B14E5B" fill-opacity="0.6" shape-rendering="crispEdges"/>
</g>
</g>
<defs>
<filter id="filter0_d_1_21" x="0" y="-15" width="343" height="455" filterUnits="userSpaceOnUse" color-interpolation-filters="sRGB">
<feFlood flood-opacity="0" result="BackgroundImageFix"/>
<feColorMatrix in="SourceAlpha" type="matrix" values="0 0 0 0 0 0 0 0 0 0 0 0 0 0 0 0 0 0 127 0" result="hardAlpha"/>
<feOffset dx="10" dy="-5"/>
<feGaussianBlur stdDeviation="5"/>
<feComposite in2="hardAlpha" operator="out"/>
<feColorMatrix type="matrix" values="0 0 0 0 0 0 0 0 0 0 0 0 0 0 0 0 0 0 0.25 0"/>
<feBlend mode="normal" in2="BackgroundImageFix" result="effect1_dropShadow_1_21"/>
<feBlend mode="normal" in="SourceGraphic" in2="effect1_dropShadow_1_21" result="shape"/>
</filter>
<filter id="filter1_d_1_21" x="516.233" y="-16" width="245.767" height="402.654" filterUnits="userSpaceOnUse" color-interpolation-filters="sRGB">
<feFlood flood-opacity="0" result="BackgroundImageFix"/>
<feColorMatrix in="SourceAlpha" type="matrix" values="0 0 0 0 0 0 0 0 0 0 0 0 0 0 0 0 0 0 127 0" result="hardAlpha"/>
<feOffset dy="4"/>
<feGaussianBlur stdDeviation="10"/>
<feComposite in2="hardAlpha" operator="out"/>
<feColorMatrix type="matrix" values="0 0 0 0 0 0 0 0 0 0 0 0 0 0 0 0 0 0 0.25 0"/>
<feBlend mode="normal" in2="BackgroundImageFix" result="effect1_dropShadow_1_21"/>
<feBlend mode="normal" in="SourceGraphic" in2="effect1_dropShadow_1_21" result="shape"/>
</filter>
<linearGradient id="paint0_linear_1_21" x1="727" y1="20" x2="46.5" y2="347.5" gradientUnits="userSpaceOnUse">
<stop stop-color="#87387C"/>
<stop offset="1" stop-color="#DE653A"/>
</linearGradient>
<clipPath id="clip0_1_21">
<rect width="742" height="435" fill="white"/>
</clipPath>
</defs>
</svg>
