<svg width="414" height="435" viewBox="0 0 414 435" fill="none" xmlns="http://www.w3.org/2000/svg">
<g clip-path="url(#clip0_2_2)">
<rect width="414" height="435" fill="white"/>
<rect width="742" height="435" fill="url(#paint0_linear_2_2)"/>
<path d="M162.643 202.92L169.093 218.82L166.573 218.31L172.423 202.92H177.583L167.503 226.02L157.423 202.92H162.643ZM183.413 225.36C181.813 225.36 180.453 225.06 179.333 224.46C178.233 223.86 177.393 223.03 176.813 221.97C176.233 220.91 175.943 219.69 175.943 218.31C175.943 216.99 176.283 215.8 176.963 214.74C177.643 213.68 178.553 212.84 179.693 212.22C180.833 211.58 182.103 211.26 183.503 211.26C185.383 211.26 186.923 211.81 188.123 212.91C189.343 213.99 190.133 215.56 190.493 217.62L180.293 220.86L179.363 218.58L186.743 216.09L185.873 216.48C185.713 215.96 185.423 215.51 185.003 215.13C184.603 214.73 183.993 214.53 183.173 214.53C182.553 214.53 182.003 214.68 181.523 214.98C181.063 215.26 180.703 215.67 180.443 216.21C180.203 216.73 180.083 217.35 180.083 218.07C180.083 218.89 180.233 219.58 180.533 220.14C180.833 220.68 181.243 221.09 181.763 221.37C182.283 221.65 182.863 221.79 183.503 221.79C183.963 221.79 184.403 221.71 184.823 221.55C185.263 221.39 185.693 221.18 186.113 220.92L187.973 224.04C187.273 224.44 186.513 224.76 185.693 225C184.893 225.24 184.133 225.36 183.413 225.36ZM198.885 225.36C197.665 225.36 196.575 225.08 195.615 224.52C194.655 223.94 193.895 223.11 193.335 222.03C192.795 220.95 192.525 219.67 192.525 218.19C192.525 216.71 192.825 215.45 193.425 214.41C194.025 213.37 194.845 212.58 195.885 212.04C196.925 211.5 198.105 211.23 199.425 211.23C200.265 211.23 201.065 211.36 201.825 211.62C202.605 211.88 203.255 212.28 203.775 212.82V214.14V201.33H207.945V225H203.745V222.45L204.075 223.35C203.395 223.91 202.635 224.39 201.795 224.79C200.955 225.17 199.985 225.36 198.885 225.36ZM200.265 221.82C200.825 221.82 201.315 221.75 201.735 221.61C202.175 221.45 202.555 221.23 202.875 220.95C203.215 220.65 203.505 220.28 203.745 219.84V216.63C203.585 216.19 203.335 215.82 202.995 215.52C202.675 215.2 202.275 214.96 201.795 214.8C201.335 214.62 200.825 214.53 200.265 214.53C199.645 214.53 199.065 214.69 198.525 215.01C198.005 215.31 197.585 215.73 197.265 216.27C196.945 216.81 196.785 217.43 196.785 218.13C196.785 218.83 196.945 219.46 197.265 220.02C197.585 220.58 198.005 221.02 198.525 221.34C199.065 221.66 199.645 221.82 200.265 221.82ZM211.245 218.28C211.245 216.94 211.555 215.74 212.175 214.68C212.815 213.62 213.705 212.79 214.845 212.19C215.985 211.57 217.295 211.26 218.775 211.26C220.275 211.26 221.575 211.57 222.675 212.19C223.775 212.79 224.615 213.62 225.195 214.68C225.795 215.74 226.095 216.94 226.095 218.28C226.095 219.62 225.795 220.83 225.195 221.91C224.615 222.97 223.775 223.81 222.675 224.43C221.575 225.05 220.255 225.36 218.715 225.36C217.275 225.36 215.985 225.08 214.845 224.52C213.725 223.96 212.845 223.15 212.205 222.09C211.565 221.03 211.245 219.76 211.245 218.28ZM215.475 218.31C215.475 218.99 215.615 219.61 215.895 220.17C216.175 220.71 216.555 221.14 217.035 221.46C217.515 221.78 218.055 221.94 218.655 221.94C219.315 221.94 219.885 221.78 220.365 221.46C220.845 221.14 221.215 220.71 221.475 220.17C221.735 219.61 221.865 218.99 221.865 218.31C221.865 217.61 221.735 216.99 221.475 216.45C221.215 215.91 220.845 215.48 220.365 215.16C219.885 214.84 219.315 214.68 218.655 214.68C218.055 214.68 217.515 214.84 217.035 215.16C216.555 215.48 216.175 215.91 215.895 216.45C215.615 216.99 215.475 217.61 215.475 218.31ZM233.184 211.89L233.574 215.49L233.484 214.95C233.864 214.17 234.384 213.51 235.044 212.97C235.704 212.41 236.354 211.98 236.994 211.68C237.654 211.38 238.154 211.23 238.494 211.23L238.284 215.43C237.304 215.31 236.464 215.47 235.764 215.91C235.064 216.35 234.524 216.93 234.144 217.65C233.764 218.37 233.574 219.11 233.574 219.87V225H229.404V211.89H233.184ZM246.789 225.36C245.569 225.36 244.459 225.12 243.459 224.64C242.479 224.14 241.699 223.38 241.119 222.36C240.539 221.34 240.249 220.04 240.249 218.46C240.249 216.98 240.549 215.7 241.149 214.62C241.749 213.54 242.539 212.71 243.519 212.13C244.499 211.53 245.539 211.23 246.639 211.23C247.939 211.23 248.919 211.45 249.579 211.89C250.259 212.31 250.819 212.78 251.259 213.3L251.079 213.81L251.469 211.89H255.369V225H251.169V222.15L251.499 223.05C251.459 223.05 251.339 223.17 251.139 223.41C250.939 223.63 250.639 223.9 250.239 224.22C249.859 224.52 249.379 224.78 248.799 225C248.239 225.24 247.569 225.36 246.789 225.36ZM247.989 221.94C248.489 221.94 248.939 221.87 249.339 221.73C249.739 221.57 250.089 221.35 250.389 221.07C250.689 220.77 250.949 220.4 251.169 219.96V216.75C251.009 216.31 250.769 215.94 250.449 215.64C250.129 215.32 249.749 215.08 249.309 214.92C248.869 214.74 248.379 214.65 247.839 214.65C247.239 214.65 246.679 214.81 246.159 215.13C245.659 215.43 245.259 215.85 244.959 216.39C244.659 216.93 244.509 217.55 244.509 218.25C244.509 218.95 244.669 219.58 244.989 220.14C245.309 220.7 245.729 221.14 246.249 221.46C246.789 221.78 247.369 221.94 247.989 221.94Z" fill="white"/>
<g filter="url(#filter0_d_2_2)">
<path fill-rule="evenodd" clip-rule="evenodd" d="M159 326.056L76.7926 231.728L141.224 0H0V435H159V326.056Z" fill="#DE653A"/>
</g>
<g filter="url(#filter1_d_2_2)">
<path fill-rule="evenodd" clip-rule="evenodd" d="M413.848 250V0H272L413.848 250Z" fill="#B14E5B" fill-opacity="0.6" shape-rendering="crispEdges"/>
</g>
</g>
<defs>
<filter id="filter0_d_2_2" x="0" y="-15" width="179" height="455" filterUnits="userSpaceOnUse" color-interpolation-filters="sRGB">
<feFlood flood-opacity="0" result="BackgroundImageFix"/>
<feColorMatrix in="SourceAlpha" type="matrix" values="0 0 0 0 0 0 0 0 0 0 0 0 0 0 0 0 0 0 127 0" result="hardAlpha"/>
<feOffset dx="10" dy="-5"/>
<feGaussianBlur stdDeviation="5"/>
<feComposite in2="hardAlpha" operator="out"/>
<feColorMatrix type="matrix" values="0 0 0 0 0 0 0 0 0 0 0 0 0 0 0 0 0 0 0.25 0"/>
<feBlend mode="normal" in2="BackgroundImageFix" result="effect1_dropShadow_2_2"/>
<feBlend mode="normal" in="SourceGraphic" in2="effect1_dropShadow_2_2" result="shape"/>
</filter>
<filter id="filter1_d_2_2" x="252" y="-16" width="181.848" height="290" filterUnits="userSpaceOnUse" color-interpolation-filters="sRGB">
<feFlood flood-opacity="0" result="BackgroundImageFix"/>
<feColorMatrix in="SourceAlpha" type="matrix" values="0 0 0 0 0 0 0 0 0 0 0 0 0 0 0 0 0 0 127 0" result="hardAlpha"/>
<feOffset dy="4"/>
<feGaussianBlur stdDeviation="10"/>
<feComposite in2="hardAlpha" operator="out"/>
<feColorMatrix type="matrix" values="0 0 0 0 0 0 0 0 0 0 0 0 0 0 0 0 0 0 0.25 0"/>
<feBlend mode="normal" in2="BackgroundImageFix" result="effect1_dropShadow_2_2"/>
<feBlend mode="normal" in="SourceGraphic" in2="effect1_dropShadow_2_2" result="shape"/>
</filter>
<linearGradient id="paint0_linear_2_2" x1="727" y1="20" x2="46.5" y2="347.5" gradientUnits="userSpaceOnUse">
<stop stop-color="#87387C"/>
<stop offset="1" stop-color="#DE653A"/>
</linearGradient>
<clipPath id="clip0_2_2">
<rect width="414" height="435" fill="white"/>
</clipPath>
</defs>
</svg>
